<?xml version="1.0" encoding="UTF-8" standalone="no"?>
<!DOCTYPE svg PUBLIC "-//W3C//DTD SVG 1.1//EN"
 "http://www.w3.org/Graphics/SVG/1.1/DTD/svg11.dtd">
<!-- Generated by graphviz version 12.2.1 (20241206.2353)
 -->
<!-- Title: loop Pages: 1 -->
<svg width="161pt" height="249pt"
 viewBox="0.00 0.00 160.75 249.25" xmlns="http://www.w3.org/2000/svg" xmlns:xlink="http://www.w3.org/1999/xlink">
<g id="graph0" class="graph" transform="scale(1 1) rotate(0) translate(4 245.25)">
<title>loop</title>
<!-- Node1 -->
<g id="Node000001" class="node">
<title>Node1</title>
<g id="a_Node000001"><a xlink:title="Boucle principale du programme.">
<polygon fill="#999999" stroke="#666666" points="34,-130.25 0,-130.25 0,-111 34,-111 34,-130.25"/>
<text text-anchor="middle" x="17" y="-116.75" font-family="Helvetica,sans-Serif" font-size="10.00">loop</text>
</a>
</g>
</g>
<!-- Node2 -->
<g id="Node000002" class="node">
<title>Node2</title>
<g id="a_Node000002"><a xlink:href="imu_8ino.html#aac544176696908ac90ce0e64301a291c" target="_top" xlink:title="Lit la valeur brute de l&#39;accélération sur l&#39;axe X depuis le capteur CMPS12.">
<polygon fill="white" stroke="#666666" points="148.62,-241.25 74.12,-241.25 74.12,-222 148.62,-222 148.62,-241.25"/>
<text text-anchor="middle" x="111.38" y="-227.75" font-family="Helvetica,sans-Serif" font-size="10.00">getAcceleroX</text>
</a>
</g>
</g>
<!-- Node1&#45;&gt;Node2 -->
<g id="edge1_Node000001_Node000002" class="edge">
<title>Node1&#45;&gt;Node2</title>
<g id="a_edge1_Node000001_Node000002"><a xlink:title=" ">
<path fill="none" stroke="#63b8ff" d="M21.21,-130.67C27.64,-149.34 43.78,-189.67 70,-213.62 70.64,-214.21 71.3,-214.77 71.98,-215.32"/>
<polygon fill="#63b8ff" stroke="#63b8ff" points="70.04,-218.24 80.32,-220.76 73.86,-212.37 70.04,-218.24"/>
</a>
</g>
</g>
<!-- Node3 -->
<g id="Node000003" class="node">
<title>Node3</title>
<g id="a_Node000003"><a xlink:href="imu_8ino.html#a4f9e8d1bf4f730620a632f94048c483a" target="_top" xlink:title="Lit la valeur brute de l&#39;accélération sur l&#39;axe Y depuis le capteur CMPS12.">
<polygon fill="white" stroke="#666666" points="148.62,-204.25 74.12,-204.25 74.12,-185 148.62,-185 148.62,-204.25"/>
<text text-anchor="middle" x="111.38" y="-190.75" font-family="Helvetica,sans-Serif" font-size="10.00">getAcceleroY</text>
</a>
</g>
</g>
<!-- Node1&#45;&gt;Node3 -->
<g id="edge2_Node000001_Node000003" class="edge">
<title>Node1&#45;&gt;Node3</title>
<g id="a_edge2_Node000001_Node000003"><a xlink:title=" ">
<path fill="none" stroke="#63b8ff" d="M25.13,-130.47C34.35,-142.63 51.44,-163.35 70,-176.62 71.33,-177.57 72.71,-178.49 74.13,-179.37"/>
<polygon fill="#63b8ff" stroke="#63b8ff" points="72.11,-182.25 82.57,-183.95 75.45,-176.1 72.11,-182.25"/>
</a>
</g>
</g>
<!-- Node4 -->
<g id="Node000004" class="node">
<title>Node4</title>
<g id="a_Node000004"><a xlink:href="imu_8ino.html#a8341338bdffce8d5a7cbdda2098c663c" target="_top" xlink:title="Lit la valeur brute de l&#39;accélération sur l&#39;axe Z depuis le capteur CMPS12.">
<polygon fill="white" stroke="#666666" points="148.25,-167.25 74.5,-167.25 74.5,-148 148.25,-148 148.25,-167.25"/>
<text text-anchor="middle" x="111.38" y="-153.75" font-family="Helvetica,sans-Serif" font-size="10.00">getAcceleroZ</text>
</a>
</g>
</g>
<!-- Node1&#45;&gt;Node4 -->
<g id="edge3_Node000001_Node000004" class="edge">
<title>Node1&#45;&gt;Node4</title>
<g id="a_edge3_Node000001_Node000004"><a xlink:title=" ">
<path fill="none" stroke="#63b8ff" d="M34.09,-127.07C45.38,-131.59 60.91,-137.81 75.02,-143.46"/>
<polygon fill="#63b8ff" stroke="#63b8ff" points="73.44,-146.6 84.03,-147.07 76.04,-140.1 73.44,-146.6"/>
</a>
</g>
</g>
<!-- Node5 -->
<g id="Node000005" class="node">
<title>Node5</title>
<g id="a_Node000005"><a xlink:href="imu_8ino.html#a633dcef74092fac673ee9fea6cacadbb" target="_top" xlink:title="Lit le cap (heading) du capteur CMPS12.">
<polygon fill="white" stroke="#666666" points="142.62,-130.25 80.12,-130.25 80.12,-111 142.62,-111 142.62,-130.25"/>
<text text-anchor="middle" x="111.38" y="-116.75" font-family="Helvetica,sans-Serif" font-size="10.00">getBearing</text>
</a>
</g>
</g>
<!-- Node1&#45;&gt;Node5 -->
<g id="edge4_Node000001_Node000005" class="edge">
<title>Node1&#45;&gt;Node5</title>
<g id="a_edge4_Node000001_Node000005"><a xlink:title=" ">
<path fill="none" stroke="#63b8ff" d="M34.09,-120.62C43.65,-120.62 56.25,-120.62 68.46,-120.62"/>
<polygon fill="#63b8ff" stroke="#63b8ff" points="68.41,-124.13 78.41,-120.63 68.41,-117.13 68.41,-124.13"/>
</a>
</g>
</g>
<!-- Node6 -->
<g id="Node000006" class="node">
<title>Node6</title>
<g id="a_Node000006"><a xlink:href="imu_8ino.html#a01368419dcdb944b1595cec3690b4390" target="_top" xlink:title="Lit l’angle de tangage (pitch) depuis le capteur CMPS12.">
<polygon fill="white" stroke="#666666" points="137.38,-93.25 85.38,-93.25 85.38,-74 137.38,-74 137.38,-93.25"/>
<text text-anchor="middle" x="111.38" y="-79.75" font-family="Helvetica,sans-Serif" font-size="10.00">getPitch</text>
</a>
</g>
</g>
<!-- Node1&#45;&gt;Node6 -->
<g id="edge5_Node000001_Node000006" class="edge">
<title>Node1&#45;&gt;Node6</title>
<g id="a_edge5_Node000001_Node000006"><a xlink:title=" ">
<path fill="none" stroke="#63b8ff" d="M34.09,-114.18C45.38,-109.66 60.91,-103.44 75.02,-97.79"/>
<polygon fill="#63b8ff" stroke="#63b8ff" points="76.04,-101.15 84.03,-94.18 73.44,-94.65 76.04,-101.15"/>
</a>
</g>
</g>
<!-- Node7 -->
<g id="Node000007" class="node">
<title>Node7</title>
<g id="a_Node000007"><a xlink:href="imu_8ino.html#a485acf4028301ffe4f9cadf3368ca27a" target="_top" xlink:title="Lit l’angle de roulis (roll) du capteur CMPS12.">
<polygon fill="white" stroke="#666666" points="134.75,-56.25 88,-56.25 88,-37 134.75,-37 134.75,-56.25"/>
<text text-anchor="middle" x="111.38" y="-42.75" font-family="Helvetica,sans-Serif" font-size="10.00">getRoll</text>
</a>
</g>
</g>
<!-- Node1&#45;&gt;Node7 -->
<g id="edge6_Node000001_Node000007" class="edge">
<title>Node1&#45;&gt;Node7</title>
<g id="a_edge6_Node000001_Node000007"><a xlink:title=" ">
<path fill="none" stroke="#63b8ff" d="M25.13,-110.78C34.35,-98.62 51.44,-77.9 70,-64.62 72.35,-62.95 74.88,-61.37 77.49,-59.91"/>
<polygon fill="#63b8ff" stroke="#63b8ff" points="78.96,-63.08 86.36,-55.49 75.84,-56.81 78.96,-63.08"/>
</a>
</g>
</g>
<!-- Node8 -->
<g id="Node000008" class="node">
<title>Node8</title>
<g id="a_Node000008"><a xlink:href="imu_8ino.html#a83c8fb539bbb223156e3904104e2eb4d" target="_top" xlink:title="Vérifie si la calibration du capteur CMPS12 est terminée avec succès.">
<polygon fill="white" stroke="#666666" points="152.75,-19.25 70,-19.25 70,0 152.75,0 152.75,-19.25"/>
<text text-anchor="middle" x="111.38" y="-5.75" font-family="Helvetica,sans-Serif" font-size="10.00">isCalibrationOk</text>
</a>
</g>
</g>
<!-- Node1&#45;&gt;Node8 -->
<g id="edge7_Node000001_Node000008" class="edge">
<title>Node1&#45;&gt;Node8</title>
<g id="a_edge7_Node000001_Node000008"><a xlink:title=" ">
<path fill="none" stroke="#63b8ff" d="M21.21,-110.58C27.64,-91.91 43.78,-51.58 70,-27.62 70.64,-27.04 71.3,-26.48 71.98,-25.93"/>
<polygon fill="#63b8ff" stroke="#63b8ff" points="73.86,-28.88 80.32,-20.49 70.04,-23.01 73.86,-28.88"/>
</a>
</g>
</g>
</g>
</svg>
